<svg xmlns="http://www.w3.org/2000/svg" viewBox="0 0 500 620" width="500" height="620">
  <defs>

    <!-- GRADIENTS -->
    <linearGradient id="goldShimmer" x1="0%" y1="0%" x2="100%" y2="100%">
      <stop offset="0%" style="stop-color:#ffe066"/>
      <stop offset="35%" style="stop-color:#e8a020"/>
      <stop offset="70%" style="stop-color:#f0c040"/>
      <stop offset="100%" style="stop-color:#a06010"/>
    </linearGradient>

    <linearGradient id="goldShimmer2" x1="0%" y1="0%" x2="0%" y2="100%">
      <stop offset="0%" style="stop-color:#ffe080"/>
      <stop offset="50%" style="stop-color:#e8a020"/>
      <stop offset="100%" style="stop-color:#b07010"/>
    </linearGradient>

    <linearGradient id="shieldBg" x1="0%" y1="0%" x2="30%" y2="100%">
      <stop offset="0%" style="stop-color:#0f1e38"/>
      <stop offset="40%" style="stop-color:#071428"/>
      <stop offset="100%" style="stop-color:#030a16"/>
    </linearGradient>

    <linearGradient id="shieldLeft" x1="0%" y1="0%" x2="100%" y2="100%">
      <stop offset="0%" style="stop-color:#0a2a18"/>
      <stop offset="100%" style="stop-color:#051408"/>
    </linearGradient>

    <linearGradient id="shieldRight" x1="0%" y1="0%" x2="100%" y2="100%">
      <stop offset="0%" style="stop-color:#0a1830"/>
      <stop offset="100%" style="stop-color:#050e20"/>
    </linearGradient>

    <linearGradient id="sunGrad" x1="0%" y1="100%" x2="0%" y2="0%">
      <stop offset="0%" style="stop-color:#e8a020"/>
      <stop offset="60%" style="stop-color:#ffe066"/>
      <stop offset="100%" style="stop-color:#fff4b0"/>
    </linearGradient>

    <linearGradient id="bannerGrad" x1="0%" y1="0%" x2="0%" y2="100%">
      <stop offset="0%" style="stop-color:#8a1a1a"/>
      <stop offset="50%" style="stop-color:#6a0a0a"/>
      <stop offset="100%" style="stop-color:#4a0505"/>
    </linearGradient>

    <radialGradient id="shieldGlow" cx="50%" cy="40%" r="60%">
      <stop offset="0%" style="stop-color:#1a3060;stop-opacity:1"/>
      <stop offset="100%" style="stop-color:#030a16;stop-opacity:1"/>
    </radialGradient>

    <radialGradient id="centerGlow" cx="50%" cy="50%" r="50%">
      <stop offset="0%" style="stop-color:#e8a020;stop-opacity:0.25"/>
      <stop offset="100%" style="stop-color:#e8a020;stop-opacity:0"/>
    </radialGradient>

    <radialGradient id="sunRadial" cx="50%" cy="50%" r="50%">
      <stop offset="0%" style="stop-color:#fff8c0;stop-opacity:1"/>
      <stop offset="60%" style="stop-color:#e8a020;stop-opacity:1"/>
      <stop offset="100%" style="stop-color:#a06010;stop-opacity:1"/>
    </radialGradient>

    <!-- FILTERS -->
    <filter id="outerGlow" x="-20%" y="-20%" width="140%" height="140%">
      <feGaussianBlur stdDeviation="6" result="blur"/>
      <feColorMatrix type="matrix" values="1 0.6 0 0 0  0.8 0.5 0 0 0  0 0 0 0 0  0 0 0 0.8 0" in="blur" result="goldBlur"/>
      <feMerge><feMergeNode in="goldBlur"/><feMergeNode in="SourceGraphic"/></feMerge>
    </filter>

    <filter id="innerGlow" x="-10%" y="-10%" width="120%" height="120%">
      <feGaussianBlur stdDeviation="3" result="blur"/>
      <feMerge><feMergeNode in="blur"/><feMergeNode in="SourceGraphic"/></feMerge>
    </filter>

    <filter id="deepShadow" x="-15%" y="-15%" width="130%" height="130%">
      <feDropShadow dx="0" dy="6" stdDeviation="10" flood-color="#000" flood-opacity="0.7"/>
    </filter>

    <filter id="softGlow">
      <feGaussianBlur stdDeviation="3" result="blur"/>
      <feMerge><feMergeNode in="blur"/><feMergeNode in="SourceGraphic"/></feMerge>
    </filter>

    <filter id="goldGlow">
      <feGaussianBlur stdDeviation="2" result="blur"/>
      <feColorMatrix type="matrix" values="1 0.5 0 0 0.1  0.6 0.3 0 0 0  0 0 0 0 0  0 0 0 1 0" in="blur" result="g"/>
      <feMerge><feMergeNode in="g"/><feMergeNode in="SourceGraphic"/></feMerge>
    </filter>

    <!-- CLIP PATHS -->
    <clipPath id="shieldClip">
      <path d="M100,95 L400,95 L400,340 Q400,460 250,520 Q100,460 100,340 Z"/>
    </clipPath>

    <clipPath id="shieldClipLeft">
      <path d="M100,95 L250,95 L250,520 Q100,460 100,340 Z"/>
    </clipPath>

    <clipPath id="shieldClipRight">
      <path d="M250,95 L400,95 L400,340 Q400,460 250,520 Z"/>
    </clipPath>

  </defs>

  <!-- ═══════════════════════════════════════════════ -->
  <!-- SHIELD — MAIN STRUCTURE                         -->
  <!-- ═══════════════════════════════════════════════ -->

  <!-- Outer glow halo -->
  <path d="M100,95 L400,95 L400,340 Q400,460 250,520 Q100,460 100,340 Z"
        fill="none" stroke="#e8a020" stroke-width="18" opacity="0.08" filter="url(#outerGlow)"/>

  <!-- Shield shadow base -->
  <path d="M103,98 L403,98 L403,341 Q403,462 250,523 Q97,462 97,341 Z"
        fill="#000" opacity="0.55" filter="url(#deepShadow)"/>

  <!-- Gold outer border — thick -->
  <path d="M100,95 L400,95 L400,340 Q400,460 250,520 Q100,460 100,340 Z"
        fill="none" stroke="url(#goldShimmer)" stroke-width="7"/>

  <!-- Shield left half — green (Guyanese heritage) -->
  <path d="M100,95 L253,95 L253,520 Q100,460 100,340 Z"
        fill="url(#shieldLeft)" clip-path="url(#shieldClipLeft)"/>

  <!-- Shield right half — navy (AI / civic) -->
  <path d="M247,95 L400,95 L400,340 Q400,460 250,520 Z"
        fill="url(#shieldRight)" clip-path="url(#shieldClipRight)"/>

  <!-- Radial glow overlay on full shield -->
  <path d="M100,95 L400,95 L400,340 Q400,460 250,520 Q100,460 100,340 Z"
        fill="url(#shieldGlow)" opacity="0.6" clip-path="url(#shieldClip)"/>

  <!-- Diagonal gold chevron band — the dividing element, bold and heraldic -->
  <g clip-path="url(#shieldClip)">
    <path d="M80,280 L250,150 L420,280 L420,320 L250,190 L80,320 Z"
          fill="url(#goldShimmer2)" opacity="0.92"/>
    <!-- Thin inner line on chevron -->
    <path d="M98,296 L250,168 L402,296"
          fill="none" stroke="rgba(255,240,120,0.4)" stroke-width="1.5"/>
    <path d="M98,310 L250,182 L402,310"
          fill="none" stroke="rgba(80,40,0,0.3)" stroke-width="1"/>
  </g>

  <!-- ═══════════════════════════════════════════════ -->
  <!-- UPPER LEFT — VICTORIA AMAZONICA LILY (Guyana)   -->
  <!-- ═══════════════════════════════════════════════ -->
  <g clip-path="url(#shieldClip)" opacity="0.95">

    <!-- Lily pad — large, bold -->
    <circle cx="175" cy="185" r="55" fill="none" stroke="#3a8a3a" stroke-width="3"/>
    <circle cx="175" cy="185" r="44" fill="rgba(30,80,30,0.55)"/>
    <circle cx="175" cy="185" r="55" fill="none" stroke="#5ab85a" stroke-width="1" opacity="0.5"/>
    <!-- Pad ribs — radiating from center -->
    <line x1="175" y1="130" x2="175" y2="240" stroke="#4a9a4a" stroke-width="2" opacity="0.7"/>
    <line x1="120" y1="185" x2="230" y2="185" stroke="#4a9a4a" stroke-width="2" opacity="0.7"/>
    <line x1="136" y1="146" x2="214" y2="224" stroke="#4a9a4a" stroke-width="1.5" opacity="0.55"/>
    <line x1="214" y1="146" x2="136" y2="224" stroke="#4a9a4a" stroke-width="1.5" opacity="0.55"/>
    <line x1="122" y1="163" x2="228" y2="207" stroke="#4a9a4a" stroke-width="1" opacity="0.4"/>
    <line x1="122" y1="207" x2="228" y2="163" stroke="#4a9a4a" stroke-width="1" opacity="0.4"/>
    <!-- Lily notch -->
    <path d="M175,130 Q182,127 187,133" fill="none" stroke="#3a8a3a" stroke-width="2"/>

    <!-- Lily flower — bold and beautiful -->
    <!-- Outer petals -->
    <ellipse cx="175" cy="152" rx="9" ry="20" fill="white" opacity="0.92" transform="rotate(0,175,152)"/>
    <ellipse cx="175" cy="152" rx="9" ry="20" fill="none" stroke="rgba(200,240,200,0.4)" stroke-width="1" transform="rotate(0,175,152)"/>
    <ellipse cx="194" cy="158" rx="9" ry="20" fill="white" opacity="0.88" transform="rotate(36,194,158)"/>
    <ellipse cx="203" cy="174" rx="9" ry="20" fill="#ffe8f8" opacity="0.85" transform="rotate(72,203,174)"/>
    <ellipse cx="156" cy="158" rx="9" ry="20" fill="white" opacity="0.88" transform="rotate(-36,156,158)"/>
    <ellipse cx="147" cy="174" rx="9" ry="20" fill="#ffe8f8" opacity="0.85" transform="rotate(-72,147,174)"/>
    <!-- Inner petals -->
    <ellipse cx="175" cy="158" rx="6" ry="14" fill="#fff0f8" opacity="0.95"/>
    <ellipse cx="185" cy="163" rx="6" ry="14" fill="#fff0f8" opacity="0.9" transform="rotate(30,185,163)"/>
    <ellipse cx="165" cy="163" rx="6" ry="14" fill="#fff0f8" opacity="0.9" transform="rotate(-30,165,163)"/>
    <!-- Stamen center -->
    <circle cx="175" cy="168" r="9" fill="url(#sunGrad)" opacity="0.97"/>
    <circle cx="175" cy="168" r="5" fill="#ffe066"/>
    <circle cx="175" cy="168" r="2.5" fill="#e8a020"/>

  </g>

  <!-- ═══════════════════════════════════════════════ -->
  <!-- UPPER RIGHT — CHICAGO SKYLINE                   -->
  <!-- ═══════════════════════════════════════════════ -->
  <g clip-path="url(#shieldClip)" opacity="0.92">

    <!-- Stars in sky -->
    <circle cx="285" cy="118" r="1.5" fill="#f0c040" opacity="0.9"/>
    <circle cx="310" cy="108" r="1.2" fill="#f0c040" opacity="0.8"/>
    <circle cx="340" cy="115" r="1.5" fill="#f0c040" opacity="0.9"/>
    <circle cx="370" cy="110" r="1" fill="#f0c040" opacity="0.7"/>
    <circle cx="390" cy="120" r="1.2" fill="#f0c040" opacity="0.75"/>
    <circle cx="295" cy="130" r="1" fill="#f0c040" opacity="0.6"/>
    <circle cx="355" cy="125" r="1.2" fill="#f0c040" opacity="0.7"/>

    <!-- Willis Tower (Sears Tower) — dominant left -->
    <rect x="275" y="155" width="22" height="80" fill="#4a9fd4" opacity="0.9"/>
    <rect x="279" y="140" width="14" height="18" fill="#4a9fd4" opacity="0.9"/>
    <rect x="282" y="125" width="8" height="18" fill="#4a9fd4" opacity="0.9"/>
    <!-- Antennas -->
    <line x1="284" y1="125" x2="284" y2="108" stroke="#4a9fd4" stroke-width="2"/>
    <line x1="289" y1="125" x2="289" y2="112" stroke="#4a9fd4" stroke-width="1.5"/>
    <!-- Window pattern on Willis -->
    <rect x="277" y="160" width="4" height="4" fill="#080d1a" opacity="0.7"/>
    <rect x="284" y="160" width="4" height="4" fill="#e8a020" opacity="0.5"/>
    <rect x="291" y="160" width="4" height="4" fill="#080d1a" opacity="0.7"/>
    <rect x="277" y="170" width="4" height="4" fill="#e8a020" opacity="0.4"/>
    <rect x="284" y="170" width="4" height="4" fill="#080d1a" opacity="0.7"/>
    <rect x="291" y="170" width="4" height="4" fill="#e8a020" opacity="0.5"/>
    <rect x="277" y="180" width="4" height="4" fill="#080d1a" opacity="0.7"/>
    <rect x="284" y="180" width="4" height="4" fill="#080d1a" opacity="0.7"/>
    <rect x="291" y="180" width="4" height="4" fill="#e8a020" opacity="0.4"/>

    <!-- John Hancock (875 N. Michigan) -->
    <path d="M308,175 L323,175 L320,125 L311,125 Z" fill="#2a6b8a" opacity="0.88"/>
    <!-- X bracing -->
    <line x1="311" y1="140" x2="320" y2="160" stroke="#080d1a" stroke-width="1.5" opacity="0.8"/>
    <line x1="311" y1="160" x2="320" y2="140" stroke="#080d1a" stroke-width="1.5" opacity="0.8"/>
    <!-- Antennas -->
    <line x1="313" y1="125" x2="311" y2="108" stroke="#2a6b8a" stroke-width="1.5"/>
    <line x1="318" y1="125" x2="320" y2="108" stroke="#2a6b8a" stroke-width="1.5"/>

    <!-- Aqua Tower (wavy balconies) -->
    <rect x="330" y="155" width="16" height="75" fill="#1a4a6a" opacity="0.85"/>
    <path d="M328,162 Q338,158 346,162" fill="none" stroke="#4a9fd4" stroke-width="1.2" opacity="0.7"/>
    <path d="M328,170 Q336,166 346,170" fill="none" stroke="#4a9fd4" stroke-width="1" opacity="0.6"/>
    <path d="M329,178 Q340,174 345,178" fill="none" stroke="#4a9fd4" stroke-width="1" opacity="0.6"/>
    <path d="M328,186 Q338,182 346,186" fill="none" stroke="#4a9fd4" stroke-width="1.2" opacity="0.7"/>

    <!-- Two Prudential buildings -->
    <rect x="352" y="165" width="12" height="70" fill="#2a5a7a" opacity="0.8"/>
    <path d="M352,165 L358,152 L364,165 Z" fill="#2a5a7a" opacity="0.8"/>
    <rect x="368" y="175" width="10" height="60" fill="#1a3a5a" opacity="0.75"/>
    <rect x="382" y="170" width="14" height="60" fill="#2a4a6a" opacity="0.8"/>

    <!-- Ground / Lake Michigan shimmering -->
    <rect x="265" y="234" width="130" height="2" fill="#4a9fd4" opacity="0.5"/>
    <rect x="268" y="238" width="126" height="1" fill="#4a9fd4" opacity="0.3"/>
    <rect x="272" y="242" width="120" height="1" fill="#4a9fd4" opacity="0.15"/>

  </g>

  <!-- ═══════════════════════════════════════════════ -->
  <!-- LOWER HALF — CIRCUIT / AI MOTIF                 -->
  <!-- ═══════════════════════════════════════════════ -->
  <g clip-path="url(#shieldClip)" opacity="0.85">

    <!-- Bold circuit traces — lower shield -->
    <!-- Main horizontal buses -->
    <line x1="110" y1="355" x2="390" y2="355" stroke="#4a9fd4" stroke-width="2" opacity="0.6"/>
    <line x1="110" y1="390" x2="390" y2="390" stroke="#4a9fd4" stroke-width="1.5" opacity="0.45"/>
    <line x1="130" y1="420" x2="370" y2="420" stroke="#4a9fd4" stroke-width="1.5" opacity="0.35"/>

    <!-- Vertical connectors -->
    <line x1="155" y1="340" x2="155" y2="440" stroke="#4a9fd4" stroke-width="1.5" opacity="0.5"/>
    <line x1="200" y1="335" x2="200" y2="510" stroke="#e8a020" stroke-width="2" opacity="0.35"/>
    <line x1="250" y1="335" x2="250" y2="450" stroke="#4a9fd4" stroke-width="1.5" opacity="0.5"/>
    <line x1="305" y1="340" x2="305" y2="440" stroke="#4a9fd4" stroke-width="1.5" opacity="0.5"/>
    <line x1="345" y1="345" x2="345" y2="430" stroke="#4a9fd4" stroke-width="1" opacity="0.4"/>

    <!-- Junction nodes — gold -->
    <circle cx="155" cy="355" r="5" fill="#e8a020" opacity="0.9" filter="url(#goldGlow)"/>
    <circle cx="250" cy="355" r="5" fill="#e8a020" opacity="0.9" filter="url(#goldGlow)"/>
    <circle cx="345" cy="355" r="5" fill="#e8a020" opacity="0.9" filter="url(#goldGlow)"/>
    <circle cx="155" cy="390" r="4" fill="#4a9fd4" opacity="0.85"/>
    <circle cx="250" cy="390" r="4" fill="#4a9fd4" opacity="0.85"/>
    <circle cx="345" cy="390" r="4" fill="#4a9fd4" opacity="0.85"/>
    <circle cx="200" cy="420" r="4" fill="#e8a020" opacity="0.7"/>
    <circle cx="305" cy="420" r="4" fill="#e8a020" opacity="0.7"/>

    <!-- IC chip — bold, centered lower shield -->
    <rect x="213" y="435" width="74" height="52" rx="4" fill="rgba(10,20,40,0.9)"
          stroke="#e8a020" stroke-width="2"/>
    <!-- Chip inner detail -->
    <rect x="220" y="442" width="60" height="38" rx="2" fill="none" stroke="rgba(232,160,32,0.3)" stroke-width="1"/>
    <text x="250" y="468" text-anchor="middle" font-family="monospace" font-size="9"
          fill="rgba(232,160,32,0.6)" letter-spacing="1">AI·ML</text>
    <!-- Chip pins top -->
    <line x1="228" y1="435" x2="228" y2="428" stroke="#4a9fd4" stroke-width="2"/>
    <line x1="240" y1="435" x2="240" y2="428" stroke="#4a9fd4" stroke-width="2"/>
    <line x1="252" y1="435" x2="252" y2="428" stroke="#4a9fd4" stroke-width="2"/>
    <line x1="264" y1="435" x2="264" y2="428" stroke="#4a9fd4" stroke-width="2"/>
    <line x1="276" y1="435" x2="276" y2="428" stroke="#4a9fd4" stroke-width="2"/>
    <!-- Chip pins bottom -->
    <line x1="228" y1="487" x2="228" y2="494" stroke="#4a9fd4" stroke-width="2"/>
    <line x1="240" y1="487" x2="240" y2="494" stroke="#4a9fd4" stroke-width="2"/>
    <line x1="252" y1="487" x2="252" y2="494" stroke="#4a9fd4" stroke-width="2"/>
    <line x1="264" y1="487" x2="264" y2="494" stroke="#4a9fd4" stroke-width="2"/>
    <line x1="276" y1="487" x2="276" y2="494" stroke="#4a9fd4" stroke-width="2"/>
    <!-- Chip pins left -->
    <line x1="213" y1="447" x2="206" y2="447" stroke="#4a9fd4" stroke-width="2"/>
    <line x1="213" y1="458" x2="206" y2="458" stroke="#4a9fd4" stroke-width="2"/>
    <line x1="213" y1="469" x2="206" y2="469" stroke="#4a9fd4" stroke-width="2"/>
    <!-- Chip pins right -->
    <line x1="287" y1="447" x2="294" y2="447" stroke="#4a9fd4" stroke-width="2"/>
    <line x1="287" y1="458" x2="294" y2="458" stroke="#4a9fd4" stroke-width="2"/>
    <line x1="287" y1="469" x2="294" y2="469" stroke="#4a9fd4" stroke-width="2"/>

  </g>

  <!-- ═══════════════════════════════════════════════ -->
  <!-- CENTER DJMP MEDALLION — THE DOMINANT FEATURE    -->
  <!-- ═══════════════════════════════════════════════ -->

  <!-- Outer glow ring -->
  <circle cx="250" cy="305" r="58" fill="url(#centerGlow)" opacity="0.8"/>

  <!-- Outer decorative ring -->
  <circle cx="250" cy="305" r="52" fill="none" stroke="url(#goldShimmer)" stroke-width="3" opacity="0.6"/>

  <!-- Medallion background -->
  <circle cx="250" cy="305" r="46" fill="#050e20" stroke="url(#goldShimmer2)" stroke-width="3.5"
          filter="url(#deepShadow)"/>

  <!-- Inner ring detail -->
  <circle cx="250" cy="305" r="39" fill="none" stroke="rgba(232,160,32,0.25)" stroke-width="1.5"/>
  <circle cx="250" cy="305" r="35" fill="none" stroke="rgba(232,160,32,0.12)" stroke-width="1"/>

  <!-- DJMP text — bold and commanding -->
  <text x="250" y="316" text-anchor="middle"
        font-family="Georgia, 'Times New Roman', serif"
        font-weight="bold" font-size="28"
        fill="url(#goldShimmer)" filter="url(#goldGlow)"
        letter-spacing="3">DJMP</text>

  <!-- Small star accents around text -->
  <text x="210" y="312" text-anchor="middle" font-size="8" fill="#e8a020" opacity="0.7">✦</text>
  <text x="290" y="312" text-anchor="middle" font-size="8" fill="#e8a020" opacity="0.7">✦</text>

  <!-- Shield outer border redrawn on top for crispness -->
  <path d="M100,95 L400,95 L400,340 Q400,460 250,520 Q100,460 100,340 Z"
        fill="none" stroke="url(#goldShimmer)" stroke-width="5"/>
  <!-- Inner border line -->
  <path d="M108,103 L392,103 L392,338 Q392,452 250,512 Q108,452 108,338 Z"
        fill="none" stroke="rgba(232,160,32,0.2)" stroke-width="1.5"/>

  <!-- ═══════════════════════════════════════════════ -->
  <!-- CREST — DRAMATIC RISING SUN                     -->
  <!-- ═══════════════════════════════════════════════ -->

  <!-- Wreath / torse base -->
  <!-- Gold and teal twisted segments -->
  <g transform="translate(250,92)">
    <!-- Torse segments — alternating gold/teal, 14 segments -->
    <ellipse cx="-66" cy="2" rx="14" ry="9" fill="#e8a020" transform="rotate(-18,-66,2)"/>
    <ellipse cx="-50" cy="-5" rx="14" ry="9" fill="#2a6b8a" transform="rotate(-13,-50,-5)"/>
    <ellipse cx="-34" cy="-10" rx="14" ry="9" fill="#e8a020" transform="rotate(-8,-34,-10)"/>
    <ellipse cx="-17" cy="-13" rx="14" ry="9" fill="#2a6b8a" transform="rotate(-3,-17,-13)"/>
    <ellipse cx="0" cy="-14" rx="14" ry="9" fill="#e8a020"/>
    <ellipse cx="17" cy="-13" rx="14" ry="9" fill="#2a6b8a" transform="rotate(3,17,-13)"/>
    <ellipse cx="34" cy="-10" rx="14" ry="9" fill="#e8a020" transform="rotate(8,34,-10)"/>
    <ellipse cx="50" cy="-5" rx="14" ry="9" fill="#2a6b8a" transform="rotate(13,50,-5)"/>
    <ellipse cx="66" cy="2" rx="14" ry="9" fill="#e8a020" transform="rotate(18,66,2)"/>
    <!-- Center torse highlight -->
    <ellipse cx="0" cy="-14" rx="14" ry="9" fill="none" stroke="rgba(255,240,150,0.3)" stroke-width="1"/>
  </g>

  <!-- Crest helm base -->
  <path d="M215,82 Q250,62 285,82 Q278,72 250,68 Q222,72 215,82 Z"
        fill="#0a1830" stroke="url(#goldShimmer)" stroke-width="2"/>

  <!-- Sun semicircle — dramatic, large -->
  <path d="M168,75 Q250,10 332,75 Z" fill="url(#sunGrad)" opacity="0.97" filter="url(#softGlow)"/>
  <!-- Sun inner glow -->
  <path d="M185,75 Q250,25 315,75 Z" fill="rgba(255,248,180,0.4)"/>

  <!-- Sun rays — bold, radiating -->
  <!-- Central ray -->
  <line x1="250" y1="12" x2="250" y2="-12" stroke="#ffe066" stroke-width="3.5" opacity="0.95"/>
  <line x1="250" y1="12" x2="250" y2="-12" stroke="white" stroke-width="1" opacity="0.6"/>
  <!-- Left rays -->
  <line x1="222" y1="20" x2="208" y2="0" stroke="#f0c040" stroke-width="2.5" opacity="0.9"/>
  <line x1="196" y1="38" x2="178" y2="24" stroke="#f0c040" stroke-width="2" opacity="0.85"/>
  <line x1="175" y1="60" x2="154" y2="52" stroke="#e8a020" stroke-width="1.5" opacity="0.8"/>
  <!-- Right rays -->
  <line x1="278" y1="20" x2="292" y2="0" stroke="#f0c040" stroke-width="2.5" opacity="0.9"/>
  <line x1="304" y1="38" x2="322" y2="24" stroke="#f0c040" stroke-width="2" opacity="0.85"/>
  <line x1="325" y1="60" x2="346" y2="52" stroke="#e8a020" stroke-width="1.5" opacity="0.8"/>
  <!-- Far diagonal rays -->
  <line x1="210" y1="14" x2="198" y2="-4" stroke="#e8a020" stroke-width="1.5" opacity="0.7"/>
  <line x1="290" y1="14" x2="302" y2="-4" stroke="#e8a020" stroke-width="1.5" opacity="0.7"/>

  <!-- Sun circle center at horizon -->
  <circle cx="250" cy="72" r="16" fill="url(#sunRadial)" filter="url(#softGlow)"/>
  <circle cx="250" cy="72" r="10" fill="#fff8c0" opacity="0.9"/>
  <circle cx="250" cy="72" r="5" fill="white"/>

  <!-- ═══════════════════════════════════════════════ -->
  <!-- LEFT SUPPORTER — BOLD HERALDIC STUDENT FIGURE   -->
  <!-- ═══════════════════════════════════════════════ -->
  <g transform="translate(42, 160)">

    <!-- Body silhouette — bold gold/teal -->
    <!-- Robe/gown shape -->
    <path d="M30,60 Q10,80 8,140 L52,140 Q50,80 30,60 Z"
          fill="#1a3a5a" stroke="url(#goldShimmer)" stroke-width="1.5"/>
    <!-- Academic robe collar -->
    <path d="M20,62 Q30,55 40,62 L38,80 Q30,75 22,80 Z"
          fill="#2a6b8a" stroke="#e8a020" stroke-width="1"/>
    <!-- Head -->
    <circle cx="30" cy="48" r="14" fill="#c89060"/>
    <!-- Academic mortarboard -->
    <ellipse cx="30" cy="36" rx="18" ry="4" fill="#0d1525" stroke="#e8a020" stroke-width="1.2"/>
    <rect x="26" y="28" width="8" height="10" fill="#0d1525"/>
    <!-- Tassel -->
    <line x1="48" y1="36" x2="52" y2="50" stroke="#e8a020" stroke-width="1.5"/>
    <line x1="52" y1="50" x2="51" y2="58" stroke="#e8a020" stroke-width="1"/>
    <line x1="52" y1="50" x2="53" y2="58" stroke="#e8a020" stroke-width="1"/>
    <!-- Holding a laptop / tablet -->
    <rect x="38" y="88" width="26" height="18" rx="2" fill="#0a1520"
          stroke="#4a9fd4" stroke-width="1.5"/>
    <!-- Screen glow -->
    <rect x="40" y="90" width="22" height="14" rx="1" fill="#4a9fd4" opacity="0.25"/>
    <line x1="42" y1="95" x2="60" y2="95" stroke="#4a9fd4" stroke-width="0.8" opacity="0.6"/>
    <line x1="42" y1="99" x2="57" y2="99" stroke="#4a9fd4" stroke-width="0.8" opacity="0.5"/>
    <line x1="42" y1="103" x2="60" y2="103" stroke="#4a9fd4" stroke-width="0.8" opacity="0.4"/>
    <!-- Arm holding laptop -->
    <path d="M38,80 Q34,88 38,100" stroke="#c89060" stroke-width="5" fill="none" stroke-linecap="round"/>
    <!-- Other arm raised toward shield -->
    <path d="M22,72 Q14,82 18,100" stroke="#c89060" stroke-width="5" fill="none" stroke-linecap="round"/>
    <circle cx="18" cy="100" r="5" fill="#c89060"/>
    <!-- Legs -->
    <rect x="20" y="138" width="9" height="25" rx="4" fill="#0d2a3a"/>
    <rect x="31" y="138" width="9" height="25" rx="4" fill="#0d2a3a"/>
    <!-- Shoes -->
    <ellipse cx="24" cy="164" rx="8" ry="4" fill="#050e1a"/>
    <ellipse cx="36" cy="164" rx="8" ry="4" fill="#050e1a"/>

    <!-- Star/data particle effects around figure -->
    <circle cx="5" cy="75" r="2" fill="#4a9fd4" opacity="0.7"/>
    <circle cx="8" cy="110" r="1.5" fill="#e8a020" opacity="0.6"/>
    <circle cx="62" cy="70" r="2" fill="#4a9fd4" opacity="0.6"/>

  </g>

  <!-- ═══════════════════════════════════════════════ -->
  <!-- RIGHT SUPPORTER — BOLD HERALDIC COMMUNITY FIGURE-->
  <!-- ═══════════════════════════════════════════════ -->
  <g transform="translate(398, 160)">

    <!-- Professional suit -->
    <path d="M30,60 Q10,80 8,140 L52,140 Q50,80 30,60 Z"
          fill="#1a2a1a" stroke="url(#goldShimmer)" stroke-width="1.5"/>
    <!-- Suit lapels -->
    <path d="M20,62 L30,75 L40,62 L36,58 L30,65 L24,58 Z"
          fill="#0d1a0d" stroke="#e8a020" stroke-width="0.8"/>
    <!-- Tie -->
    <path d="M27,65 L30,62 L33,65 L31,88 L29,88 Z" fill="#e8a020"/>
    <!-- Pocket square -->
    <path d="M38,75 L44,73 L45,80 L38,80 Z" fill="rgba(232,160,32,0.6)"/>
    <!-- Head -->
    <circle cx="30" cy="48" r="14" fill="#8a5030"/>
    <!-- Natural hair -->
    <path d="M16,43 Q30,30 44,43 Q40,34 30,31 Q20,34 16,43 Z" fill="#1a0800"/>
    <path d="M16,43 Q14,50 16,56 Q14,45 16,43 Z" fill="#1a0800"/>
    <path d="M44,43 Q46,50 44,56 Q46,45 44,43 Z" fill="#1a0800"/>
    <!-- Holding a scroll / proclamation -->
    <rect x="40" y="85" width="20" height="28" rx="2" fill="#f0e8c0"
          stroke="url(#goldShimmer)" stroke-width="1.5"/>
    <line x1="43" y1="91" x2="57" y2="91" stroke="#8a6020" stroke-width="1"/>
    <line x1="43" y1="96" x2="57" y2="96" stroke="#8a6020" stroke-width="1"/>
    <line x1="43" y1="101" x2="54" y2="101" stroke="#8a6020" stroke-width="1"/>
    <line x1="43" y1="106" x2="57" y2="106" stroke="#8a6020" stroke-width="0.8"/>
    <!-- Scroll curl top -->
    <path d="M40,85 Q50,82 60,85" fill="none" stroke="#e8a020" stroke-width="1.2"/>
    <!-- Scroll curl bottom -->
    <path d="M40,113 Q50,116 60,113" fill="none" stroke="#e8a020" stroke-width="1.2"/>
    <!-- Arms -->
    <path d="M40,78 Q46,86 46,95" stroke="#8a5030" stroke-width="5" fill="none" stroke-linecap="round"/>
    <circle cx="46" cy="95" r="5" fill="#8a5030"/>
    <path d="M20,72 Q14,82 18,100" stroke="#8a5030" stroke-width="5" fill="none" stroke-linecap="round"/>
    <circle cx="18" cy="100" r="5" fill="#8a5030"/>
    <!-- Legs -->
    <rect x="20" y="138" width="9" height="25" rx="4" fill="#0a1a0a"/>
    <rect x="31" y="138" width="9" height="25" rx="4" fill="#0a1a0a"/>
    <!-- Shoes -->
    <ellipse cx="24" cy="164" rx="8" ry="4" fill="#050e05"/>
    <ellipse cx="36" cy="164" rx="8" ry="4" fill="#050e05"/>

    <!-- Floating data particles -->
    <circle cx="55" cy="75" r="2" fill="#4a9fd4" opacity="0.7"/>
    <circle cx="58" cy="112" r="1.5" fill="#e8a020" opacity="0.6"/>
    <circle cx="4" cy="68" r="2" fill="#3a8a3a" opacity="0.7"/>

  </g>

  <!-- ═══════════════════════════════════════════════ -->
  <!-- BANNER — BOLD HERALDIC RIBBON                   -->
  <!-- ═══════════════════════════════════════════════ -->

  <!-- Main ribbon body -->
  <path d="M55,534 Q60,522 88,526 L412,526 Q440,522 445,534 Q440,548 412,542 L250,546 L88,542 Q60,548 55,534 Z"
        fill="url(#bannerGrad)" stroke="#901010" stroke-width="1.5" filter="url(#deepShadow)"/>

  <!-- Left ribbon fold/tail -->
  <path d="M55,534 Q48,542 56,552 Q60,548 88,542 Q68,544 55,534 Z"
        fill="#3a0505" stroke="#601010" stroke-width="1"/>
  <!-- Right ribbon fold/tail -->
  <path d="M445,534 Q452,542 444,552 Q440,548 412,542 Q432,544 445,534 Z"
        fill="#3a0505" stroke="#601010" stroke-width="1"/>

  <!-- Banner highlight line -->
  <path d="M88,527 L412,527" stroke="rgba(255,160,160,0.15)" stroke-width="1"/>

  <!-- Banner text -->
  <text x="250" y="538" text-anchor="middle"
        font-family="Georgia, 'Times New Roman', serif"
        font-size="9.5" font-weight="bold"
        fill="#ffe066" letter-spacing="2">
    DATA SCIENCE · ARTIFICIAL INTELLIGENCE · ROBOTICS
  </text>

  <!-- ═══════════════════════════════════════════════ -->
  <!-- ORGANIZATION NAME                               -->
  <!-- ═══════════════════════════════════════════════ -->

  <!-- Decorative line left -->
  <line x1="80" y1="566" x2="185" y2="566" stroke="url(#goldShimmer)" stroke-width="1" opacity="0.5"/>
  <!-- Decorative line right -->
  <line x1="315" y1="566" x2="420" y2="566" stroke="url(#goldShimmer)" stroke-width="1" opacity="0.5"/>
  <!-- Diamond center accent -->
  <path d="M245,562 L250,557 L255,562 L250,567 Z" fill="#e8a020" opacity="0.8"/>

  <text x="250" y="575" text-anchor="middle"
        font-family="Georgia, 'Times New Roman', serif"
        font-weight="bold" font-size="14"
        fill="url(#goldShimmer2)" letter-spacing="4"
        filter="url(#goldGlow)">
    DJMP INSTITUTE
  </text>

  <text x="250" y="590" text-anchor="middle"
        font-family="Georgia, 'Times New Roman', serif"
        font-size="8" font-style="italic"
        fill="rgba(244,241,234,0.45)" letter-spacing="2.5">
    AI · Civic Intelligence · Community Power
  </text>

</svg>
